<?xml version="1.0" standalone="no"?><!DOCTYPE svg PUBLIC "-//W3C//DTD SVG 1.1//EN" "http://www.w3.org/Graphics/SVG/1.1/DTD/svg11.dtd"><svg t="1511794502807" class="icon" style="" viewBox="0 0 1024 1024" version="1.1" xmlns="http://www.w3.org/2000/svg" p-id="3978" xmlns:xlink="http://www.w3.org/1999/xlink" width="200" height="200"><defs><style type="text/css"></style></defs><path d="M618.641297 426.252057c-39.185464 0-75.869968 10.67513-107.329471 29.266557l-87.071078-87.071078 63.334467-63.320141c20.629853-20.629853 20.629853-54.076616 0-74.705446-20.629853-20.629853-54.079686-20.629853-74.709539 0l-63.333444 63.317071-63.317071-63.317071c-20.629853-20.629853-54.079686-20.629853-74.709539 0-20.629853 20.62883-20.629853 54.075593 0 74.705446l75.868945 75.868945c0.004093 0 0.004093 0.004093 0.004093 0.004093s0 0.004093 0.004093 0.004093L436.607404 530.223037c-18.587334 31.458479-29.27065 68.144006-29.27065 107.329471 0 116.702955 94.606705 211.307613 211.304544 211.307613 116.698862 0 211.30352-94.604658 211.30352-211.307613C829.944817 520.853645 735.340159 426.252057 618.641297 426.252057L618.641297 426.252057zM618.641297 743.205802c-58.350966 0-105.649202-47.302329-105.649202-105.653295 0-58.347896 47.298236-105.650225 105.649202-105.650225s105.649202 47.303352 105.649202 105.650225C724.290499 695.903473 676.992263 743.205802 618.641297 743.205802L618.641297 743.205802z" p-id="3979"></path></svg>